<svg width="454" height="216" viewBox="0 0 454 216" fill="none" xmlns="http://www.w3.org/2000/svg">
<g clip-path="url(#clip0_60_319)">
<path d="M149.507 215.691V206.761C149.507 206.591 149.588 206.506 149.748 206.506H153.45C153.883 206.506 154.278 206.591 154.634 206.761C154.991 206.931 155.299 207.157 155.562 207.441C155.825 207.726 156.028 208.05 156.173 208.415C156.318 208.779 156.39 209.156 156.39 209.547C156.39 209.937 156.316 210.313 156.167 210.673C156.018 211.033 155.812 211.353 155.549 211.633C155.287 211.913 154.972 212.136 154.607 212.301C154.243 212.466 153.85 212.549 153.425 212.549H151.352V215.691C151.352 215.861 151.267 215.946 151.098 215.946H149.748C149.588 215.946 149.507 215.861 149.507 215.691ZM153.081 208.122H151.352V210.946H153.081C153.506 210.946 153.849 210.813 154.112 210.546C154.375 210.279 154.506 209.945 154.506 209.547C154.506 209.352 154.473 209.168 154.404 208.994C154.336 208.82 154.239 208.669 154.112 208.542C153.984 208.415 153.835 208.313 153.661 208.236C153.487 208.161 153.292 208.122 153.081 208.122Z" fill="black"/>
<path d="M169.723 215.691V206.76C169.723 206.693 169.741 206.633 169.778 206.582C169.818 206.531 169.878 206.505 169.963 206.505H174.009C174.442 206.505 174.843 206.592 175.212 206.766C175.58 206.94 175.897 207.172 176.16 207.46C176.421 207.748 176.628 208.079 176.777 208.452C176.924 208.825 176.999 209.212 176.999 209.61C176.999 210.145 176.852 210.647 176.56 211.118C176.268 211.588 175.879 211.964 175.396 212.243L177.125 215.678C177.16 215.737 177.162 215.797 177.134 215.856C177.103 215.915 177.044 215.945 176.962 215.945H175.32C175.193 215.945 175.094 215.873 175.028 215.729L173.514 212.676H171.58V215.691C171.58 215.86 171.495 215.945 171.326 215.945H169.963C169.804 215.945 169.723 215.861 169.723 215.691ZM173.564 208.146H171.58V210.997H173.564C174.005 210.997 174.371 210.863 174.665 210.596C174.957 210.329 175.104 209.987 175.104 209.572C175.104 209.368 175.065 209.18 174.988 209.006C174.912 208.832 174.804 208.682 174.665 208.554C174.524 208.427 174.361 208.328 174.175 208.255C173.988 208.183 173.785 208.146 173.564 208.146Z" fill="black"/>
<path d="M199.707 211.225C199.707 211.895 199.581 212.526 199.326 213.115C199.072 213.704 198.724 214.217 198.283 214.654C197.842 215.091 197.324 215.436 196.732 215.691C196.137 215.945 195.506 216.073 194.835 216.073C194.164 216.073 193.535 215.945 192.947 215.691C192.356 215.436 191.843 215.091 191.406 214.654C190.969 214.218 190.625 213.704 190.377 213.115C190.126 212.526 190 211.895 190 211.225C190 210.547 190.126 209.914 190.377 209.324C190.625 208.734 190.969 208.221 191.406 207.784C191.843 207.347 192.356 207.002 192.947 206.748C193.535 206.493 194.164 206.366 194.835 206.366C195.506 206.366 196.137 206.493 196.732 206.748C197.324 207.002 197.842 207.347 198.283 207.784C198.724 208.221 199.072 208.734 199.326 209.324C199.581 209.914 199.707 210.547 199.707 211.225ZM197.837 211.225C197.837 210.793 197.761 210.39 197.608 210.017C197.456 209.643 197.245 209.319 196.978 209.044C196.711 208.769 196.396 208.55 196.032 208.389C195.665 208.227 195.268 208.146 194.835 208.146C194.41 208.146 194.017 208.227 193.653 208.389C193.288 208.55 192.971 208.769 192.704 209.044C192.437 209.319 192.228 209.643 192.081 210.017C191.932 210.39 191.857 210.793 191.857 211.225C191.857 211.65 191.932 212.048 192.081 212.421C192.228 212.795 192.437 213.119 192.704 213.394C192.971 213.671 193.288 213.889 193.653 214.05C194.017 214.211 194.41 214.292 194.835 214.292C195.268 214.292 195.665 214.211 196.032 214.05C196.396 213.889 196.711 213.671 196.978 213.394C197.245 213.119 197.456 212.795 197.608 212.421C197.761 212.048 197.837 211.65 197.837 211.225Z" fill="black"/>
<path d="M211.653 207.956V206.748C211.653 206.586 211.733 206.506 211.895 206.506H218.573C218.742 206.506 218.827 206.586 218.827 206.748V207.956C218.827 208.126 218.742 208.211 218.573 208.211H216.131V215.691C216.131 215.861 216.051 215.945 215.889 215.945H214.514C214.355 215.945 214.274 215.861 214.274 215.691V208.211H211.895C211.733 208.211 211.653 208.126 211.653 207.956Z" fill="black"/>
<path d="M240.709 211.225C240.709 211.895 240.583 212.526 240.328 213.115C240.074 213.704 239.726 214.217 239.285 214.654C238.844 215.091 238.326 215.436 237.734 215.691C237.14 215.945 236.508 216.073 235.837 216.073C235.166 216.073 234.537 215.945 233.949 215.691C233.359 215.436 232.845 215.091 232.408 214.654C231.971 214.218 231.627 213.704 231.379 213.115C231.129 212.526 231.002 211.895 231.002 211.225C231.002 210.547 231.129 209.914 231.379 209.324C231.628 208.734 231.971 208.221 232.408 207.784C232.845 207.347 233.359 207.002 233.949 206.748C234.537 206.493 235.166 206.366 235.837 206.366C236.508 206.366 237.14 206.493 237.734 206.748C238.326 207.002 238.844 207.347 239.285 207.784C239.726 208.221 240.074 208.734 240.328 209.324C240.583 209.914 240.709 210.547 240.709 211.225ZM238.84 211.225C238.84 210.793 238.763 210.39 238.61 210.017C238.459 209.643 238.247 209.319 237.98 209.044C237.713 208.769 237.398 208.55 237.034 208.389C236.667 208.227 236.27 208.146 235.837 208.146C235.413 208.146 235.019 208.227 234.655 208.389C234.29 208.55 233.974 208.769 233.706 209.044C233.439 209.319 233.23 209.643 233.083 210.017C232.934 210.39 232.86 210.793 232.86 211.225C232.86 211.65 232.934 212.048 233.083 212.421C233.23 212.795 233.439 213.119 233.706 213.394C233.974 213.671 234.29 213.889 234.655 214.05C235.019 214.211 235.413 214.292 235.837 214.292C236.27 214.292 236.667 214.211 237.034 214.05C237.398 213.889 237.713 213.671 237.98 213.394C238.247 213.119 238.459 212.795 238.61 212.421C238.763 212.048 238.84 211.65 238.84 211.225Z" fill="black"/>
<path d="M260.734 213.744C260.904 213.617 261.039 213.617 261.14 213.744L261.778 214.826C261.844 214.902 261.871 214.968 261.852 215.023C261.836 215.078 261.79 215.136 261.714 215.195C261.349 215.466 260.941 215.683 260.492 215.844C260.043 216.005 259.529 216.085 258.954 216.085C258.283 216.085 257.651 215.958 257.057 215.704C256.463 215.45 255.945 215.102 255.5 214.661C255.052 214.22 254.705 213.702 254.45 213.109C254.195 212.515 254.067 211.883 254.067 211.213C254.067 210.535 254.195 209.903 254.45 209.318C254.705 208.733 255.052 208.219 255.5 207.778C255.945 207.337 256.463 206.991 257.057 206.742C257.651 206.491 258.283 206.366 258.954 206.366C259.529 206.366 260.043 206.445 260.492 206.601C260.941 206.758 261.353 206.973 261.726 207.244C261.794 207.303 261.827 207.363 261.827 207.422C261.827 207.481 261.819 207.529 261.803 207.562L261.128 208.707C261.051 208.808 260.933 208.814 260.771 208.719C260.475 208.533 260.185 208.389 259.9 208.288C259.616 208.185 259.301 208.134 258.954 208.134C258.521 208.134 258.121 208.213 257.757 208.369C257.392 208.527 257.075 208.745 256.808 209.025C256.541 209.305 256.332 209.631 256.179 210.005C256.028 210.378 255.951 210.781 255.951 211.214C255.951 211.646 256.028 212.051 256.179 212.428C256.332 212.806 256.541 213.136 256.808 213.421C257.075 213.704 257.392 213.929 257.757 214.095C258.121 214.26 258.521 214.343 258.954 214.343C259.301 214.343 259.628 214.285 259.939 214.171C260.248 214.056 260.513 213.914 260.734 213.744Z" fill="black"/>
<path d="M284.383 211.225C284.383 211.895 284.256 212.526 284.002 213.115C283.747 213.704 283.399 214.217 282.958 214.654C282.517 215.091 281.999 215.436 281.407 215.691C280.813 215.945 280.181 216.073 279.51 216.073C278.839 216.073 278.21 215.945 277.622 215.691C277.032 215.436 276.518 215.091 276.081 214.654C275.644 214.218 275.301 213.704 275.052 213.115C274.802 212.526 274.675 211.895 274.675 211.225C274.675 210.547 274.802 209.914 275.052 209.324C275.301 208.734 275.644 208.221 276.081 207.784C276.518 207.347 277.032 207.002 277.622 206.748C278.21 206.493 278.839 206.366 279.51 206.366C280.181 206.366 280.813 206.493 281.407 206.748C281.999 207.002 282.517 207.347 282.958 207.784C283.399 208.221 283.747 208.734 284.002 209.324C284.256 209.914 284.383 210.547 284.383 211.225ZM282.513 211.225C282.513 210.793 282.436 210.39 282.283 210.017C282.132 209.643 281.921 209.319 281.653 209.044C281.386 208.769 281.072 208.55 280.707 208.389C280.341 208.227 279.943 208.146 279.51 208.146C279.086 208.146 278.693 208.227 278.328 208.389C277.964 208.55 277.647 208.769 277.38 209.044C277.113 209.319 276.903 209.643 276.757 210.017C276.608 210.39 276.533 210.793 276.533 211.225C276.533 211.65 276.607 212.048 276.757 212.421C276.904 212.795 277.113 213.119 277.38 213.394C277.647 213.671 277.964 213.889 278.328 214.05C278.693 214.211 279.086 214.292 279.51 214.292C279.943 214.292 280.341 214.211 280.707 214.05C281.072 213.889 281.386 213.671 281.653 213.394C281.92 213.119 282.132 212.795 282.283 212.421C282.436 212.048 282.513 211.65 282.513 211.225Z" fill="black"/>
<path d="M298.212 206.773C298.212 206.697 298.237 206.631 298.289 206.576C298.339 206.521 298.411 206.493 298.504 206.493H299.803C299.981 206.493 300.074 206.586 300.082 206.773V214.215H303.797C303.873 214.215 303.938 214.24 303.994 214.292C304.049 214.343 304.076 214.414 304.076 214.507V215.666C304.076 215.844 303.983 215.937 303.797 215.946H298.492C298.306 215.946 298.212 215.852 298.212 215.666V206.773H298.212Z" fill="black"/>
<path d="M177.257 167.727C175.541 171.618 173.21 174.992 170.265 177.851C167.32 180.712 163.887 182.914 159.969 184.458C156.051 186.003 151.89 186.774 147.485 186.774C143.138 186.774 139.02 186.017 135.13 184.501C131.24 182.986 127.838 180.841 124.92 178.066C122.003 175.292 119.7 171.975 118.014 168.113C116.326 164.252 115.483 160.006 115.483 155.372C115.483 150.454 116.369 146.034 118.144 142.115C119.916 138.199 122.303 134.88 125.306 132.164C128.31 129.447 131.827 127.359 135.861 125.9C139.893 124.441 144.138 123.713 148.602 123.713C153.462 123.713 157.824 124.571 161.685 126.286C165.547 128.002 168.82 130.305 171.509 133.193C174.198 136.081 176.257 139.414 177.687 143.188C179.116 146.964 179.832 150.911 179.832 155.029C179.832 159.605 178.974 163.838 177.257 167.727ZM167.863 144.562C166.974 141.015 165.631 137.798 163.831 134.908C162.028 132.021 159.784 129.675 157.095 127.874C154.406 126.071 151.232 125.171 147.571 125.171C143.854 125.171 140.634 126.071 137.92 127.874C135.201 129.675 132.972 132.006 131.227 134.866C129.48 137.726 128.193 140.973 127.365 144.604C126.535 148.237 126.121 151.912 126.121 155.629C126.121 159.519 126.578 163.265 127.495 166.868C128.409 170.472 129.768 173.647 131.57 176.392C133.373 179.138 135.63 181.341 138.349 182.999C141.064 184.659 144.225 185.487 147.83 185.487C151.433 185.487 154.564 184.573 157.225 182.741C159.883 180.912 162.1 178.552 163.874 175.663C165.647 172.775 166.975 169.529 167.863 165.925C168.749 162.321 169.194 158.718 169.194 155.114C169.194 151.627 168.749 148.109 167.863 144.562Z" fill="black"/>
<path d="M257.052 126.63C255.907 127.201 254.85 127.946 253.878 128.86C252.903 129.775 251.976 130.862 251.09 132.12C250.201 133.378 249.244 134.809 248.216 136.41C247.528 137.498 246.571 138.971 245.342 140.829C244.11 142.688 242.854 144.619 241.566 146.621C240.279 148.623 239.035 150.538 237.834 152.369C236.633 154.2 235.688 155.629 235.003 156.659V173.904C235.003 175.564 235.043 177.179 235.13 178.752C235.216 180.326 235.488 181.427 235.945 182.055C236.803 183.313 237.92 184.144 239.291 184.544C240.665 184.943 241.98 185.26 243.24 185.487V186.345H216.813V185.487C218.299 185.316 219.601 185.045 220.716 184.672C221.833 184.301 223.019 183.4 224.278 181.969C224.563 181.683 224.778 181.197 224.92 180.51C225.063 179.825 225.177 179.052 225.263 178.195C225.35 177.336 225.406 176.421 225.436 175.449C225.464 174.476 225.479 173.533 225.479 172.617C225.535 171.017 225.578 169.114 225.606 166.911C225.634 164.71 225.649 162.036 225.649 158.889C225.535 158.718 225.192 158.174 224.621 157.259C224.047 156.345 223.346 155.215 222.519 153.869C221.688 152.526 220.772 151.026 219.774 149.365C218.771 147.707 217.783 146.092 216.813 144.518C215.838 142.945 214.924 141.473 214.066 140.099C213.208 138.727 212.492 137.611 211.923 136.752C210.834 135.094 209.849 133.579 208.963 132.205C208.074 130.833 207.173 129.661 206.259 128.688C205.345 127.716 204.443 126.944 203.557 126.372C202.668 125.8 201.655 125.485 200.51 125.427V124.57H226.507V125.427C225.649 125.486 224.791 125.571 223.933 125.685C223.075 125.8 222.275 125.986 221.531 126.242C220.787 126.5 220.188 126.843 219.731 127.272C219.271 127.701 219.043 128.289 219.043 129.031C219.043 129.775 219.456 130.905 220.287 132.42C221.117 133.937 221.988 135.466 222.905 137.01C223.534 138.04 224.278 139.284 225.136 140.743C225.992 142.201 226.936 143.746 227.967 145.376C228.996 147.006 230.039 148.68 231.098 150.395C232.157 152.111 233.142 153.741 234.059 155.286C234.8 154.199 235.716 152.812 236.803 151.125C237.89 149.438 238.992 147.722 240.107 145.977C241.224 144.233 242.28 142.559 243.283 140.957C244.281 139.356 245.04 138.098 245.555 137.182C245.84 136.725 246.157 136.195 246.5 135.595C246.843 134.994 247.17 134.366 247.485 133.707C247.8 133.051 248.072 132.378 248.3 131.691C248.529 131.004 248.645 130.376 248.645 129.803C248.645 128.889 248.414 128.173 247.957 127.659C247.5 127.143 246.914 126.744 246.198 126.457C245.482 126.171 244.697 125.956 243.839 125.813C242.981 125.672 242.151 125.542 241.351 125.427V124.57H261.171V125.427C259.568 125.657 258.197 126.058 257.052 126.63Z" fill="black"/>
<path d="M338.387 184.544C337.415 184.087 336.6 183.557 335.942 182.956C335.285 182.355 334.754 181.77 334.355 181.197C333.954 180.626 333.698 180.225 333.583 179.996C332.898 178.51 332.281 177.179 331.737 176.006C331.194 174.835 330.608 173.362 329.981 171.588C328.607 167.984 327.233 164.338 325.862 160.649C324.489 156.958 323.072 153.141 321.615 149.194C320.155 145.247 318.624 141.144 317.024 136.882C315.422 132.622 313.733 128.118 311.961 123.368H311.276C311.047 123.769 310.717 124.285 310.288 124.913C309.859 125.543 309.331 126.2 308.701 126.886C308.071 127.573 307.343 128.23 306.515 128.86C305.684 129.49 304.755 130.033 303.724 130.49L304.583 132.378C303.212 135.582 301.752 139.026 300.208 142.717C298.664 146.406 297.103 150.067 295.531 153.698C293.957 157.332 292.428 160.863 290.94 164.295C289.452 167.726 288.109 170.787 286.908 173.475C285.593 176.392 284.476 178.595 283.562 180.081C282.648 181.57 281.988 182.514 281.589 182.914C281.416 183.142 280.802 183.571 279.743 184.2C278.684 184.831 277.415 185.229 275.927 185.402V186.345H294.2V185.487C293.456 185.373 292.669 185.244 291.842 185.101C291.011 184.959 290.24 184.73 289.526 184.414C288.81 184.101 288.224 183.701 287.767 183.213C287.307 182.728 287.081 182.113 287.081 181.369C287.081 180.112 287.68 177.937 288.881 174.848C289.681 172.846 290.483 170.858 291.283 168.885C292.085 166.911 292.913 164.839 293.771 162.665L294.546 160.863C295.917 157.489 297.189 154.357 298.362 151.468C299.535 148.58 300.607 145.991 301.579 143.703C302.551 141.416 303.366 139.471 304.027 137.869C304.682 136.268 305.184 135.095 305.527 134.351C306.043 135.61 306.685 137.225 307.457 139.199C308.229 141.172 309.087 143.347 310.031 145.719C310.976 148.093 311.946 150.566 312.949 153.141C313.949 155.715 314.934 158.289 315.909 160.863L316.595 162.665C317.453 164.895 318.253 167.041 318.997 169.1C319.741 171.159 320.398 173.033 320.969 174.719C321.541 176.407 321.985 177.838 322.3 179.01C322.615 180.183 322.772 181.026 322.772 181.54C322.772 182.342 322.501 182.999 321.957 183.514C321.414 184.028 320.784 184.429 320.071 184.715C319.355 185.002 318.667 185.201 318.011 185.316C317.351 185.431 316.937 185.487 316.767 185.487V186.345H341.82V185.316C340.503 185.26 339.36 185.002 338.387 184.544Z" fill="black"/>
<path d="M417.407 186.345H362.325V185.487C363.755 185.26 365.169 184.886 366.573 184.372C367.972 183.857 369.074 183.142 369.877 182.227C370.161 181.884 370.405 181.384 370.605 180.725C370.806 180.069 370.961 179.309 371.078 178.451C371.192 177.593 371.291 176.693 371.377 175.748C371.464 174.805 371.507 173.876 371.507 172.96C371.507 172.159 371.519 171.073 371.55 169.7C371.578 168.327 371.606 166.826 371.634 165.196C371.662 163.565 371.677 161.893 371.677 160.176C371.677 158.404 371.677 156.745 371.677 155.2V138.556C371.677 137.526 371.677 136.526 371.677 135.552C371.677 134.522 371.634 133.565 371.55 132.678C371.464 131.792 371.334 131.005 371.164 130.319C370.991 129.632 370.735 129.089 370.39 128.689C369.59 127.717 368.516 126.973 367.173 126.457C365.829 125.943 364.413 125.6 362.925 125.428V124.571H390.296V125.428C389.552 125.543 388.666 125.715 387.637 125.943C386.606 126.172 385.634 126.544 384.72 127.058C383.803 127.573 383.016 128.302 382.359 129.246C381.701 130.19 381.343 131.434 381.287 132.979C381.229 134.981 381.186 136.811 381.158 138.469C381.13 140.128 381.102 141.76 381.071 143.359C381.043 144.961 381.031 146.621 381.031 148.336C381.031 150.052 381.031 151.969 381.031 154.084C381.031 156.03 381.031 157.804 381.031 159.405C381.031 160.949 381.031 162.464 381.031 163.952C381.031 165.44 381.043 166.97 381.071 168.542C381.102 170.116 381.115 171.875 381.115 173.819C381.173 175.65 381.244 177.394 381.33 179.052C381.417 180.713 381.716 181.941 382.232 182.741C382.458 183.028 382.917 183.314 383.603 183.599C384.291 183.886 385.119 184.129 386.091 184.329C387.063 184.53 388.122 184.701 389.267 184.844C390.41 184.987 391.553 185.058 392.698 185.058C393.155 185.058 393.886 185.046 394.886 185.015C395.887 184.987 396.989 184.93 398.19 184.844C399.391 184.759 400.619 184.629 401.879 184.458C403.136 184.286 404.253 184.058 405.225 183.771C407.513 183.142 409.415 182.313 410.931 181.284C412.446 180.254 413.746 179.067 414.836 177.723C415.92 176.38 416.836 174.921 417.58 173.347C418.322 171.774 419.038 170.13 419.726 168.414L420.584 168.671L417.407 186.345Z" fill="black"/>
<path d="M33 125.084V124.227C33.457 124.227 34.63 124.227 36.5191 124.227C38.4614 124.227 40.6654 124.213 43.1257 124.184C45.5834 124.156 48.0438 124.141 50.5041 124.141C52.9618 124.141 54.9652 124.141 56.509 124.141C60.3403 124.141 63.7453 124.256 66.7184 124.484C69.6942 124.713 72.411 125.485 74.8713 126.8C77.3875 128.117 79.4187 129.904 80.9624 132.163C82.5062 134.423 83.2781 137.268 83.2781 140.701C83.2781 142.817 82.8922 144.72 82.1203 146.406C81.3484 148.093 80.3202 149.581 79.0329 150.867C77.7456 152.154 76.2425 153.256 74.5286 154.17C72.8123 155.087 71.0095 155.859 69.1231 156.487V156.745C70.093 157.259 71.0375 158.003 71.9542 158.975C72.8683 159.949 73.7543 161.034 74.6125 162.235C76.1005 164.41 77.7152 166.755 79.4621 169.271C81.2064 171.788 82.7654 174.019 84.1365 175.964C86.2515 178.938 88.3107 181.112 90.3139 182.484C92.3173 183.857 94.6607 184.744 97.3496 185.144V186.002H79.7614C79.246 185.487 78.8728 185.101 78.6468 184.844C78.4158 184.587 78.1594 184.286 77.8725 183.943C77.5857 183.6 77.2302 183.1 76.8011 182.441C76.3721 181.785 75.6992 180.798 74.7851 179.482C73.6984 177.881 72.7386 176.435 71.911 175.149C71.0807 173.862 70.2378 172.59 69.3796 171.33C68.5213 170.074 67.5921 168.799 66.5916 167.513C65.5887 166.226 64.4031 164.782 63.0294 163.18C61.8869 161.865 60.6428 160.635 59.297 159.491C57.9539 158.347 56.537 157.632 55.0517 157.345C53.965 157.117 53.1347 157.003 52.5634 157.003C52.048 157.003 51.3904 156.973 50.5906 156.916V155.8C52.9342 155.8 55.1228 155.701 57.1541 155.501C59.1827 155.301 61.1429 154.886 63.0294 154.257C64.86 153.685 66.4317 152.914 67.7494 151.94C69.0646 150.969 70.136 149.868 70.9664 148.637C71.7941 147.408 72.4111 146.077 72.8123 144.648C73.2109 143.218 73.4114 141.73 73.4114 140.185C73.4114 137.326 72.6954 134.78 71.2659 132.549C69.8364 130.319 67.7492 128.546 65.0047 127.23C61.5101 125.554 57.6831 125.462 53.8892 125.336C46.9295 125.104 39.9628 125.084 33 125.084Z" fill="black"/>
<path d="M226.773 70.7243L234.864 80.1241L239.548 77.841L226.773 63L213.986 77.8559L218.67 80.1391L226.773 70.7243Z" fill="black"/>
<path d="M258.695 72.7712L242.107 80.8145L242.083 80.7867L237.399 83.0698L237.416 83.0891L226.773 88.2498L219.203 84.5792L219.203 84.5804L218.559 84.2667L216.131 83.0891L216.134 83.0849L211.45 80.8016L211.439 80.8145L194.851 72.7712L197.778 104.41L210.184 89.9969L205.501 87.714L201.703 92.1268L200.692 81.2034L205.314 83.4448L205.316 83.442L206.679 84.1063L208.038 84.7658L208.036 84.7683L212.72 87.0512L212.729 87.0403L226.773 93.8498L238.58 88.125L248.187 83.442L248.197 83.462L252.855 81.2034L251.844 92.1268L248.033 87.6989L243.349 89.9818L255.768 104.41L258.695 72.7712Z" fill="black"/>
</g>
<defs>
<clipPath id="clip0_60_319">
<rect width="454" height="216" fill="white"/>
</clipPath>
</defs>
</svg>
