<svg width="477" height="189" viewBox="0 0 477 189" fill="none" xmlns="http://www.w3.org/2000/svg">
<path d="M116.825 42H160.457C160.729 42 161.028 42.299 161.355 42.8971V53.3634C161.355 53.6352 161.654 53.9342 162.252 54.2605H163.475C163.964 54.2605 164.372 54.1517 164.753 53.9342C165.758 54.2061 166.248 54.5051 166.248 54.8313V55.4566C166.248 55.8372 166.058 56.0547 165.65 56.0547H164.1V57.6042C164.1 58.0392 163.883 58.2295 163.475 58.2295H142.298C140.15 58.2295 136.888 58.3382 132.511 58.5557V61.3286C132.566 61.7092 132.756 61.9266 133.109 61.9266H135.882C136.317 61.981 136.507 62.1985 136.507 62.5519V75.7638H163.23C163.611 75.8182 163.828 76.0085 163.828 76.3619V80.9834C163.828 81.3639 162.714 81.6902 160.485 81.8805L159.859 81.5542L158.038 81.8805C157.603 81.663 157.304 81.5542 157.086 81.5542L156.76 83.1038V88.3233L157.086 91.3952L156.189 92.0205H130.065C130.065 92.7273 129.358 93.1351 127.944 93.2438L126.096 92.9176H125.497C125.062 92.972 124.872 93.1894 124.872 93.5429V93.8147H126.721L129.793 94.1409V104.308C129.793 105.396 130.391 105.994 131.614 106.13C131.614 106.592 131.723 106.999 131.94 107.353C131.723 107.706 131.614 108.114 131.614 108.576V108.902H160.838C161.219 108.902 161.545 109.935 161.735 111.974H166.275C166.71 112.029 166.9 112.219 166.9 112.572C166.9 113.007 166.683 113.198 166.275 113.198H162.931L161.382 113.524V125.186H111.008C110.79 125.186 110.682 125.078 110.682 124.86L110.056 125.186H108.235C107.936 125.186 107.61 124.887 107.283 124.289V123.664C107.283 123.446 107.392 123.338 107.61 123.338L107.283 122.74V115.4L105.734 115.128H103.015C102.58 115.128 102.39 114.91 102.39 114.503V113.877C102.445 113.497 102.662 113.279 103.015 113.279C106.441 113.062 109.105 112.953 111.008 112.953H112.231V112.355L109.159 112.029H107.936C107.501 112.029 107.311 111.73 107.311 111.132L107.637 110.506C107.419 110.153 107.311 109.745 107.311 109.283C107.311 109.011 107.936 108.712 109.159 108.386C109.377 108.032 109.485 107.598 109.485 107.108C109.485 106.238 108.751 105.722 107.311 105.613V95.1196L107.637 94.5215L107.039 94.1953H103.043C102.608 94.1953 102.417 94.005 102.417 93.5972C102.472 93.1623 102.689 92.972 103.043 92.972H106.713C107.093 92.972 107.311 92.7545 107.311 92.3467V82.2339C107.311 81.7989 107.637 81.6086 108.262 81.6086C108.887 81.6086 110.845 81.5271 114.08 81.3368V62.6063C114.08 61.981 112.965 61.6548 110.736 61.6548H110.111V56.7615L112.285 55.5382V54.9129C112.285 54.5323 112.068 54.3148 111.66 54.3148H107.99C107.555 54.3148 107.365 54.0973 107.365 53.6896V42.8971L107.691 42.299C111.715 42.1087 114.787 42 116.825 42ZM105.163 78.8901H106.713C107.093 78.9445 107.311 79.1348 107.311 79.4882V81.0377C107.311 81.4183 107.12 81.6358 106.713 81.6358H105.163C104.728 81.6358 104.538 81.4455 104.538 81.0377V79.4882C104.619 79.0804 104.837 78.8901 105.163 78.8901ZM116.227 112.953H119V112.355H116.825C116.418 112.436 116.227 112.627 116.227 112.953ZM149.393 113.279V114.503C149.447 114.937 149.665 115.128 150.018 115.128H154.286C154.286 114.883 154.395 114.557 154.613 114.176C154.395 113.796 154.286 113.469 154.286 113.279H149.393Z" fill="black"/>
<path d="M158.772 54.8857H159.669C160.294 55.1032 160.62 55.7284 160.62 56.7343C160.62 57.1149 160.403 57.3324 159.995 57.3324H159.397C158.962 57.3324 158.554 56.6256 158.119 55.2119L158.772 54.8857ZM159.424 42H181.498C182.042 42 182.858 44.6641 183.945 49.9924C184.38 53.0371 185.277 54.5867 186.718 54.5867C187.533 54.5867 187.941 55.511 187.941 57.3596C187.642 57.577 187.017 57.6858 186.093 57.6858L190.714 76.4163C191.421 79.896 192.345 81.6358 193.487 81.6358V83.4572C193.487 83.8922 193.269 84.0825 192.862 84.0825H190.741L191.067 86.2029H194.411C194.846 86.2029 195.036 86.0126 195.036 85.6048C194.819 85.2514 194.71 84.8436 194.71 84.3815L195.335 84.0553H198.054C198.054 83.865 198.271 83.0494 198.679 81.6086V81.2824C198.462 81.2824 198.163 81.1737 197.782 80.9562C200.827 70.5715 202.784 63.5306 203.6 59.779C204.116 58.1479 204.633 57.3324 205.149 57.3324L205.775 57.6586C206.509 57.6586 207.025 56.843 207.324 55.2119C206.835 54.777 206.101 54.5867 205.149 54.5867V54.2605C207.406 46.6215 208.547 42.5437 208.547 42H229.996C230.54 42 231.464 45.2622 232.769 51.7866C233.313 53.8527 234.346 54.8585 235.841 54.8585C236.276 54.8585 236.466 55.375 236.466 56.4081V57.0061C236.466 57.4411 235.95 57.6314 234.917 57.6314V58.2295C235.95 63.014 238.098 70.5987 241.36 80.9562C242.175 81.228 242.583 82.1523 242.583 83.729L241.958 84.0553H239.837V84.6805C240.272 85.1699 240.463 85.6592 240.463 86.1757H242.583L244.133 85.9039L243.806 84.3543V84.0281H245.655C246.851 84.0281 247.476 83.2125 247.476 81.5814C247.096 81.0649 246.878 80.7659 246.878 80.6843L251.201 64.7267L256.094 45.67H256.42C256.203 45.2894 256.094 44.9632 256.094 44.7729C256.638 42.9243 257.046 42 257.317 42H258.541C258.976 42.0544 259.166 42.2447 259.166 42.5981C259.818 42.2175 260.444 42 260.987 42H280.044C280.044 43.4136 279.827 44.1204 279.419 44.1204C279.419 44.3379 279.528 44.4467 279.745 44.4467L269.632 80.9562C270.013 81.0105 270.23 81.228 270.23 81.5814V83.131C270.013 83.7291 269.415 84.0281 268.409 84.0281L266.859 83.7019C266.37 85.333 265.962 86.1485 265.636 86.1485H261.314C260.879 86.2029 260.688 86.4204 260.688 86.7738C260.688 87.1544 261.83 87.4806 264.086 87.6709V88.2961L263.76 88.8942L264.386 89.2204H268.382L269.877 88.8942L270.203 89.5195V90.1175C270.203 90.5525 269.388 90.8515 267.756 91.069C267.756 91.4496 267.349 93.1894 266.533 96.2885L268.382 96.8866C267.947 97.7565 266.125 104.417 262.836 116.84L261.884 117.466C261.504 117.248 261.178 117.139 260.987 117.139C260.987 117.357 260.879 117.466 260.661 117.466L260.987 118.064C260.145 122.576 259.547 124.833 259.166 124.833L257.888 125.159L257.29 124.833L255.442 125.159H254.844C254.626 125.159 254.517 125.05 254.517 124.833L253.892 125.159H240.49C238.723 125.159 237.418 124.969 236.494 124.561C236.14 124.751 235.732 124.833 235.27 124.833H234.645C234.047 124.833 233.231 122.495 232.198 117.792H231.301V117.167H233.123C233.123 116.188 231.492 109.337 228.229 96.6148H226.68C226.082 96.6148 225.457 94.7662 224.831 91.069L225.457 90.7428L226.055 91.069L226.381 90.4438V90.1175C226.381 89.6554 225.266 89.3564 223.037 89.2204C221.95 89.4379 220.917 89.5466 219.965 89.5466C219.693 88.1058 218.986 87.3718 217.845 87.3718L217.219 87.6981C216.893 87.4806 216.377 87.3718 215.67 87.3718V86.7738C215.724 86.3388 215.942 86.1485 216.295 86.1485H219.639L220.264 85.8767L219.938 84.3271V84.0009H222.711C222.711 82.5873 222.412 81.4727 221.814 80.6571C222.194 80.1406 222.412 79.7057 222.412 79.3794L222.086 78.7814C222.928 76.7969 223.363 75.3561 223.363 74.4861C222.357 70.4084 221.651 68.3695 221.188 68.3695C219.53 74.1871 218.497 78.4823 218.117 81.2552C218.552 81.3096 218.742 81.5271 218.742 81.8805C218.742 83.5116 217.41 84.3271 214.746 84.3271C214.746 85.5504 214.528 86.1485 214.12 86.1485H209.771C209.336 86.2029 209.145 86.4204 209.145 86.7738V87.3718H211.918C212.353 87.4534 212.544 87.6709 212.544 87.9971V88.6224L212.217 89.2204H218.035C218.47 89.2748 218.66 89.4923 218.66 89.8457V90.1175C218.66 90.4981 217.736 90.8243 215.887 91.069C215.887 92.2923 215.588 94.0322 214.99 96.2885L216.54 96.8866L209.771 123.664C209.771 124.697 209.363 125.213 208.547 125.213L206.998 124.887C206.78 124.887 206.454 124.996 206.046 125.213C204.007 124.996 202.485 124.887 201.452 124.887L198.679 125.213C198.299 124.996 197.972 124.887 197.782 124.887C196.967 125.105 196.233 125.213 195.607 125.213C195.227 125.213 195.009 125.105 195.009 124.887L193.161 125.213C191.747 125.213 188.784 125.105 184.271 124.887L179.949 109.881C180.166 109.446 180.275 109.147 180.275 108.93C179.215 107.271 177.991 103.194 176.605 96.6963H174.756C174.512 96.6963 173.886 94.8477 172.908 91.1506C174.158 90.8787 174.756 90.5525 174.756 90.1991C174.756 89.601 172.609 89.302 168.314 89.302C167.879 88.0515 167.362 87.4534 166.764 87.4534C165.677 87.6709 165.051 87.7796 164.915 87.7796C164.589 87.5621 164.181 87.4534 163.692 87.4534V86.8553C163.746 86.4204 163.964 86.2301 164.317 86.2301H167.661C168.096 86.2301 168.286 86.0398 168.286 85.632V84.9524L167.96 84.3543L168.585 84.0281H170.706V82.8048C170.706 82.0708 170.081 81.2552 168.857 80.3581L163.04 57.9576C163.094 57.5227 163.284 57.3324 163.638 57.3324C164.018 57.5498 164.345 57.6586 164.589 57.6586L164.861 57.0333C164.861 56.6799 164.562 55.8644 163.964 54.5867H162.469C161.735 54.0158 160.511 49.9108 158.799 42.299L159.424 42ZM160.919 86.1757L161.245 86.801V87.399H160.348V86.801C160.376 86.3932 160.593 86.1757 160.919 86.1757ZM186.093 86.5019C186.31 86.8825 186.419 87.2087 186.419 87.399H190.089V86.801C190.089 86.366 189.898 86.1757 189.491 86.1757H186.718L186.093 86.5019ZM190.415 87.4262V88.7039C190.469 89.0845 190.687 89.302 191.04 89.302H192.862L194.411 88.9758V88.7039C194.411 88.0787 193.596 87.6437 191.965 87.4262L191.366 87.7524C190.931 87.5078 190.605 87.4262 190.415 87.4262ZM197.157 89.601C197.157 90.1991 196.64 90.7972 195.607 91.4224C196.396 94.9293 197.13 96.6963 197.782 96.6963H198.38L199.93 90.8515C200.745 90.8515 201.153 90.6341 201.153 90.2263V89.6282H197.157V89.601ZM199.033 96.941C199.25 97.24 199.359 97.8653 199.359 98.7896C199.957 98.5721 200.256 97.9468 200.256 96.941V96.6691H199.631L199.033 96.941ZM222.983 78.5095V79.1348H223.309V78.5095H222.983ZM223.554 77.9386V78.5367H223.88V77.9386H223.554ZM235.27 86.8281C235.325 87.2087 235.515 87.4262 235.868 87.4262H239.267V86.2029H235.868C235.461 86.2573 235.27 86.4476 235.27 86.8281ZM240.164 87.4262L239.837 88.0515V88.6767C239.892 89.0573 240.109 89.2748 240.463 89.2748H242.909C243.208 89.2748 243.507 88.9758 243.806 88.3777C243.018 87.7253 241.795 87.4262 240.164 87.4262ZM245.084 90.8244C245.682 94.739 246.498 96.6691 247.531 96.6691C248.645 93.1894 249.379 91.2321 249.706 90.8244C250.086 90.8244 250.304 90.6069 250.304 90.1991V89.601H247.259C246.715 90.4166 245.981 90.8244 245.084 90.8244ZM248.482 97.2672C248.537 97.7022 248.727 97.8925 249.08 97.8925H249.407C249.407 97.6478 249.515 97.3216 249.733 96.941L249.108 96.6691C248.673 96.7235 248.482 96.9138 248.482 97.2672Z" fill="black"/>
<path d="M279.092 42.1359H300.27C300.705 42.1359 301.004 43.2505 301.221 45.5069H304.565C305 45.5884 305.19 45.8059 305.19 46.1321L304.239 46.7574C303.532 46.5399 303.124 46.4312 303.015 46.4312C302.662 46.6486 302.254 46.7574 301.792 46.7574V46.4312C301.411 46.6486 301.085 46.7574 300.895 46.7574V82.9951C300.895 83.4844 301.71 83.7834 303.341 83.8922C303.695 83.6747 304.103 83.5659 304.565 83.5659C304.565 83.6475 304.782 83.9465 305.19 84.463V85.4145C305.19 85.6864 304.864 85.9854 304.239 86.3116H302.417C301.792 86.3116 301.466 86.2029 301.466 85.9854L299.971 86.3116H296.899C296.464 86.366 296.273 86.5835 296.273 86.9369V88.1602C296.328 88.5408 296.545 88.7583 296.899 88.7583H303.341V110.262C303.341 110.724 303.45 111.132 303.668 111.485C303.341 112.518 302.716 113.035 301.819 113.035C301.819 112.817 301.71 112.708 301.493 112.708L301.221 113.334V122.223C301.275 122.658 301.466 122.848 301.819 122.848C302.173 122.631 302.58 122.522 303.042 122.522C303.477 123.283 303.668 124.099 303.668 124.969L303.042 125.295H289.531C287.819 125.295 285.046 125.186 281.267 124.969V123.147L279.092 121.924C279.092 121.707 278.984 121.598 278.766 121.598L279.092 119.423V117.602C279.092 117.112 278.984 116.705 278.766 116.378C278.984 116.025 279.092 115.617 279.092 115.155V113.605C279.092 113.225 278.168 112.708 276.32 112.056C276.102 111.675 275.993 111.349 275.993 111.159C276.32 110.316 276.646 109.881 276.945 109.881H278.168C278.522 109.881 278.821 110.805 279.065 112.654H280.615C281.05 112.654 281.24 112.464 281.24 112.056V89.3292C281.24 88.8942 281.023 88.7039 280.615 88.7039C277.026 88.4864 274.879 88.3777 274.172 88.3777L273.846 87.7796V86.8825C273.846 86.5835 274.145 86.2573 274.743 85.931C274.96 85.931 275.069 86.0398 275.069 86.2573L275.694 85.931H282.137C282.518 85.931 282.735 85.7407 282.735 85.333V84.3815L282.137 83.4844L279.962 83.8106H279.364C279.065 83.8106 278.766 83.5116 278.467 82.9135V47.3555L278.739 46.7574C278.44 46.5399 277.842 46.4312 276.918 46.4312V45.8059H278.467V42.7612C278.549 42.3534 278.766 42.1359 279.092 42.1359ZM280.642 46.1321C280.696 46.5671 280.914 46.7574 281.267 46.7574H281.865C282.3 46.7574 282.491 46.5399 282.491 46.1321C282.491 45.6972 282.273 45.5069 281.865 45.5069H281.267C280.859 45.5884 280.642 45.8059 280.642 46.1321Z" fill="black"/>
<path d="M309.295 64.5092H309.893C310.328 64.5908 310.518 64.8083 310.518 65.1345C310.518 65.5966 310.002 65.8957 308.969 66.0316L308.643 65.4335V65.1073C308.724 64.7267 308.942 64.5092 309.295 64.5092ZM320.332 42.1359C322.289 42.1359 326.802 42.2447 333.816 42.4621C340.993 52.9556 344.989 58.3654 345.805 58.6916C346.593 58.6916 347.707 59.3984 349.148 60.812H358.989C359.37 60.8664 359.587 61.0839 359.587 61.4373C359.587 61.8179 359.397 62.0354 358.989 62.0354H358.038C357.576 62.0354 357.168 61.9538 356.815 61.7635C356.488 61.9538 356.081 62.0354 355.591 62.0354C355.129 62.0354 354.721 61.9538 354.368 61.7635L352.546 62.0354H350.698L350.1 61.7635L349.774 62.3616C352.193 65.5966 358.119 74.0784 367.553 87.8068L366.003 88.4321C368.803 92.6729 370.652 95.1196 371.549 95.772L371.875 94.2225V92.6729C371.875 91.4768 371.25 90.036 370.026 88.4049C371.059 88.1874 371.576 87.9699 371.576 87.7796C370.543 86.2029 370.026 85.197 370.026 84.7349C370.407 84.5174 370.733 84.4087 370.924 84.4087C370.325 83.6475 370.026 82.9407 370.026 82.2882V66.0316C368.993 66.0316 368.477 65.95 368.477 65.7597L367.879 66.0316C367.444 66.0316 367.254 65.8413 367.254 65.4335V65.1073C367.308 64.6723 367.525 64.482 367.879 64.482H369.999V59.0178C368.749 59.0178 368.151 58.8004 368.151 58.3926V43.033L368.477 42.435C372.555 42.2175 375.627 42.1087 377.693 42.1087H388.73C388.947 42.1087 389.056 42.2175 389.056 42.435L389.681 42.1087C390.062 42.1631 390.279 42.3806 390.279 42.734V58.6644C391.611 58.6644 392.345 58.9635 392.454 59.5615V63.8568C392.454 64.1558 392.128 64.4548 391.503 64.7539H389.681V65.7054H391.503C391.802 65.7054 392.128 66.0044 392.454 66.6025V87.4806L390.279 88.7039V100.72C390.279 100.992 389.681 101.399 388.458 101.943L388.73 104.118V111.458C389.763 111.458 390.279 111.648 390.279 112.056V123.392L390.605 124.942L389.98 125.268H376.197C374.159 125.268 371.114 125.159 366.982 124.942C361.354 116.27 358.092 111.757 357.195 111.458C356.244 111.458 355.238 110.316 354.15 108.06C351.078 104.091 349.529 101.861 349.529 101.345H350.426V100.72L341.863 88.4592C342.896 88.2418 343.412 88.0243 343.412 87.834L339.09 81.7174V77.4221C339.09 76.2803 337.975 74.2415 335.746 71.3055H335.42V87.5893L333.598 88.8126V89.4107H336.942C337.323 89.4651 337.54 89.6826 337.54 90.036V90.9331C337.54 91.2321 337.241 91.5312 336.643 91.8302H333.598L333.272 95.5002V104.716L333.598 106.265C333.109 106.646 332.484 106.864 331.75 106.864V108.712L333.299 109.935V120.374L333.626 122.196C333.408 122.549 333.299 122.957 333.299 123.419L333.626 124.969L333 125.295H319.517C317.75 125.295 315.004 125.186 311.225 124.969L310.899 124.371V124.044C310.899 123.827 311.008 123.718 311.225 123.718L310.899 123.12V109.908L309.404 108.685V107.462L310.899 106.238V92.4554C310.899 92.1564 311.225 91.8302 311.85 91.504H314.569C315.004 91.504 315.194 91.3137 315.194 90.9059V90.0088C315.194 89.5738 314.977 89.3835 314.569 89.3835H311.443C311.008 89.3835 310.817 89.1932 310.817 88.7855C310.872 88.3505 311.089 88.1602 311.443 88.1602H312.992V87.5621C312.992 86.8553 313.074 86.366 313.264 86.0126L312.992 84.463L313.264 83.2397C313.264 83.0222 313.182 82.9135 312.992 82.9135L313.264 81.3639V80.7659C313.264 79.9503 313.182 79.5425 312.992 79.5425L313.264 77.3677V76.1444C313.264 73.4803 313.182 70.0278 312.992 65.7597L313.264 65.1345L312.992 64.5092C313.182 62.8781 313.482 62.0626 313.889 62.0626H316.662C318.076 62.0626 320.332 61.981 323.377 61.7907V61.1655H323.105C321.583 61.1655 320.468 61.0567 319.707 60.8392C318.375 61.0567 317.043 61.1655 315.711 61.1655C313.672 61.1655 312.666 60.4586 312.666 59.045C311.415 59.045 310.817 58.746 310.817 58.1479V43.033L311.144 42.435C315.493 42.2447 318.565 42.1359 320.332 42.1359ZM364.481 64.5092H364.807C365.242 64.5908 365.432 64.8083 365.432 65.1345V65.4607C365.432 65.8413 365.215 66.0588 364.807 66.0588C364.508 66.0588 364.209 65.7597 363.91 65.1617C363.937 64.7267 364.127 64.5092 364.481 64.5092ZM372.147 86.0126C372.201 86.3932 372.419 86.6107 372.772 86.6107V86.0126H372.147ZM373.37 86.9097V87.535H373.696V86.9097H373.37Z" fill="black"/>
<path d="M408.983 42H426.49C438.968 42 448.728 44.8816 455.741 50.6177C460.879 54.8313 464.685 59.0178 467.132 63.2315H471.454C475.151 69.5113 477 74.9483 477 79.5154V80.1406C477 80.2222 476.782 80.5212 476.375 81.0377L474.825 80.7659H472.378V82.2611C472.378 82.696 472.161 82.8863 471.753 82.8863H468.409V85.333H471.753C472.188 85.3873 472.378 85.6048 472.378 85.9582V86.5563C472.378 91.0418 470.639 96.8866 467.159 104.118C466.724 104.172 466.534 104.39 466.534 104.743V105.015H472.378C472.759 105.069 472.977 105.287 472.977 105.64C472.297 106.021 471.699 106.238 471.155 106.238H465.854L461.26 111.811H455.415C452.343 111.811 450.794 112.301 450.794 113.306V113.633H458.786C459.221 113.687 459.411 113.904 459.411 114.258C459.085 114.258 457.862 115.182 455.741 117.031C447.994 122.576 440.518 125.322 433.286 125.322H399.387V114.312C399.387 113.877 399.196 113.687 398.789 113.687H398.163C392.835 113.687 390.171 113.388 390.171 112.79V112.464C390.225 112.083 390.443 111.866 390.796 111.866H398.789C399.169 111.866 399.387 111.648 399.387 111.24V106.293C400.746 106.293 402.812 106.211 405.558 106.021V105.396C402.785 105.178 400.827 105.069 399.713 105.069L399.387 104.471V86.3116C399.387 86.0126 399.088 85.6864 398.49 85.3602H395.717C395.336 85.3602 395.119 85.1699 395.119 84.7621V83.5388C395.119 83.0494 395.934 82.7504 397.565 82.5873L398.163 82.9135L400.338 81.0649C403.002 81.0649 404.334 80.7659 404.334 80.1678V63.8568C404.334 63.3674 402.676 62.9597 399.387 62.5791V42.8971L399.713 42.299C403.818 42.1087 406.917 42 408.983 42ZM392.319 82.6145H392.944C393.379 82.6688 393.569 82.8863 393.569 83.2397V84.7893C393.569 85.1699 393.352 85.3873 392.944 85.3873H391.72V83.2669C391.802 82.8048 391.992 82.6145 392.319 82.6145ZM397.891 63.2315H398.49C398.924 63.2859 399.115 63.5034 399.115 63.8568V64.4549C399.115 64.8083 398.598 65.1345 397.565 65.352L397.239 64.7539V63.8568C397.321 63.449 397.538 63.2315 397.891 63.2315ZM421.57 59.2353V62.5791C421.624 63.014 421.814 63.2043 422.168 63.2043H425.892C426.273 63.2587 426.49 63.4762 426.49 63.8296V80.1134C426.49 80.2766 426.191 80.5756 425.593 81.0105L424.043 80.7387H422.195L420.972 82.8591H418.199C417.818 82.9135 417.601 83.131 417.601 83.4844V85.3058H420.944C421.135 85.3058 421.434 85.632 421.896 86.2573L421.57 87.8068V99.7954C421.57 100.258 421.678 100.665 421.896 101.019C421.678 101.372 421.57 101.78 421.57 102.242V103.465L421.896 105.015H425.566C426.028 105.015 426.436 105.124 426.789 105.341C427.143 105.124 427.55 105.015 428.013 105.015L428.339 105.64L427.115 106.238C426.68 106.238 426.49 106.157 426.49 105.966L424.37 106.238H421.923L421.597 107.788V108.413C421.651 108.848 421.841 109.038 422.195 109.038H428.692C430.677 109.038 433.966 108.114 438.533 106.238C441.605 106.048 443.861 105.966 445.302 105.966L445.628 105.341C443.562 105.124 442.04 105.015 441.007 105.015H440.409V104.417C444.188 101.671 446.96 97.6478 448.7 92.4011L450.25 85.9582L449.298 85.333H446.526C446.145 85.333 445.927 85.1427 445.927 84.7349V83.5116C445.927 83.2125 446.226 82.8863 446.825 82.5601C447.042 82.5601 447.151 82.6688 447.151 82.8863C449.054 82.8863 450.277 82.2611 450.821 81.0377H452.669L454.79 80.7659V80.1406C454.029 74.0784 451.065 68.5598 445.9 63.5306C441.388 63.1772 438.615 62.4432 437.554 61.3558C434.265 59.5072 431.492 58.5829 429.263 58.5829H422.195C421.787 58.6644 421.57 58.8819 421.57 59.2353ZM441.578 81.0649H444.922C445.357 81.1193 445.547 81.3368 445.547 81.6902V82.0164C445.547 82.397 445.329 82.6145 444.922 82.6145H442.149C441.768 82.6145 441.551 82.4242 441.551 82.0164V81.0649H441.578Z" fill="black"/>
<path d="M102.036 72.7463H101.085V73.3715H102.036V72.7463Z" fill="black"/>
<path d="M73.0845 121.408V121.734C73.6282 122.74 74.0359 123.256 74.3078 123.283V122.658C73.8728 122.169 73.6825 121.761 73.6825 121.435H73.0845V121.408Z" fill="black"/>
<path d="M99.862 72.7463H98.9648V73.3715H99.862V72.7463Z" fill="black"/>
<path d="M75.5582 124.479H75.2319V125.105H75.5582V124.479Z" fill="black"/>
<path d="M105.408 72.7463H102.635V73.3715H105.408V72.7463Z" fill="black"/>
<path d="M101.71 120.81C101.71 120.539 98.5297 115.808 92.1412 106.647C92.1412 106.212 92.6577 106.022 93.6908 106.022V105.696C93.0655 103.629 91.7335 102.624 89.6946 102.624L86.9217 99.2799H79.2555C78.9021 99.2799 78.6846 99.0624 78.6303 98.6546V98.3284C79.8264 98.3284 82.3002 98.2468 86.0246 98.0565V97.7303L85.6984 97.105C86.0518 97.105 86.5683 96.9147 87.2479 96.507C85.4537 93.6525 84.3391 92.0214 83.8498 91.5593V91.2331L88.4713 89.4117C93.5277 86.367 97.2248 81.6368 99.5356 75.2483C99.5356 74.8133 98.9375 74.623 97.7142 74.623C98.3122 70.4365 98.6113 67.9899 98.6113 67.2287C98.6113 65.0267 97.8773 61.7373 96.4365 57.3877C94.0986 52.1682 91.3529 48.77 88.145 47.2205C88.145 46.7583 88.2538 46.3506 88.4713 45.9972C88.0363 45.2903 86.9217 44.6923 85.0731 44.1486C82.409 42.7349 77.1895 42.0281 69.3873 42.0281H47.8568C46.416 42.0281 44.1324 42.1369 41.0605 42.3544C41.0605 42.1369 40.8702 42.0281 40.4624 42.0281C40.1362 42.2456 39.6197 42.3544 38.9129 42.3544H36.7381C36.4119 42.3544 36.1944 42.5447 36.14 42.9524V46.0243L34.2914 47.2477V67.8811L32.171 69.1044V70.654C33.8021 70.654 34.6177 71.4695 34.6177 73.1006C34.8623 73.1006 35.8954 72.9919 37.6896 72.7744C37.9071 72.7744 38.2061 72.8832 38.5867 73.1006L38.2605 74.9492H36.7109C36.3847 74.9492 36.1672 75.1395 36.1128 75.5473V96.507L35.7866 97.105C35.5691 97.105 35.2701 96.9963 34.8895 96.7788C34.4546 96.7788 34.2643 97.105 34.2643 97.7303C34.2643 98.0293 31.7089 98.2196 26.5981 98.3284L26 98.6274C26 99.0624 26.2175 99.2527 26.6253 99.2527H32.7419L34.2914 99.5789V115.537C34.2914 115.971 34.5089 116.162 34.9167 116.162H38.2605V117.059H34.9439C34.5905 117.059 34.373 117.276 34.3186 117.684V125.078C38.4236 125.269 41.5227 125.35 43.5615 125.35H56.1754L56.7735 125.078C56.7735 124.834 56.6919 124.508 56.5016 124.127C56.6919 123.774 56.7735 123.366 56.7735 122.904V119.234L56.5016 118.608C56.6919 118.608 56.7735 118.092 56.7735 117.059H60.1716C60.6066 117.059 60.7969 116.869 60.7969 116.461C60.7969 116.107 60.5794 115.89 60.1716 115.836H56.7735V101.672L56.5016 101.047C56.6919 101.047 56.7735 100.965 56.7735 100.775V99.2255H62.3192C63.1892 99.2255 64.4397 100.259 66.0436 102.297C67.865 102.297 69.0883 103.303 69.7136 105.342V105.967H68.4902C68.4902 106.783 71.4806 111.703 77.4341 120.756V121.028C76.7273 121.028 76.2108 121.137 75.8846 121.354C75.8846 121.517 76.7001 122.741 78.3312 125.078C82.1371 125.269 84.91 125.35 86.6227 125.35H102.037L102.635 125.078C102.635 124.752 101.928 123.502 100.514 121.354C100.487 121.164 100.895 120.946 101.71 120.81ZM39.8372 73.3997H39.2391V73.0735H39.8372V73.3997ZM41.3867 73.3997H40.7887V73.0735H41.3867V73.3997ZM55.2239 98.6274C55.2239 99.0624 55.0336 99.2527 54.6259 99.2527H49.0801C48.7267 99.2527 48.5092 99.0352 48.4549 98.6274V98.3012H55.2239V98.6274ZM62.292 98.3012L61.694 98.0293H61.3678C60.3347 98.0293 58.7852 98.1109 56.7463 98.3012C56.7463 98.0837 56.6647 97.7847 56.4744 97.4041C56.855 97.4041 57.0725 97.1866 57.0725 96.7788L57.6978 97.105H58.2958C58.5133 94.6584 58.8124 93.4351 59.2473 93.4351H62.0202C62.2377 93.4351 62.7542 94.3594 63.5697 96.2079L62.292 98.3012ZM75.2865 64.9995L73.6554 65.3529H69.6592C69.1155 65.4345 68.8436 65.7063 68.8436 66.1685V67.7452C68.9252 68.2617 69.1971 68.5064 69.6592 68.5064H75.2865V71.9317V75.2483C75.2865 75.8192 74.9603 76.3357 74.4438 76.6075C74.2263 76.7163 73.9816 76.7706 73.7641 76.7706C73.4379 76.7706 73.1389 76.6619 72.867 76.4716L63.1076 69.3763V71.9317V75.2483C63.1076 75.8192 62.7814 76.3357 62.2649 76.6075C62.0474 76.7163 61.8027 76.7706 61.5852 76.7706C61.259 76.7706 60.96 76.6619 60.6881 76.4716L47.9927 67.283C47.6121 67.0112 47.3675 66.5491 47.3675 66.0597C47.3675 65.6248 47.5849 65.217 47.884 64.9451H50.4937C51.0102 64.9451 51.2549 64.7005 51.2549 64.184V62.9334L51.0374 62.58L60.6609 55.5935C61.1231 55.2673 61.7483 55.2129 62.2377 55.4576C62.7542 55.7294 63.0804 56.2459 63.0804 56.8168V60.1062V62.6616L72.8398 55.5663C73.302 55.2401 73.9272 55.1857 74.4166 55.4304C74.5797 55.5119 74.6884 55.6478 74.7972 55.7838V60.9217C74.7972 61.1392 74.9875 61.3295 75.2593 61.4926V64.9995H75.2865Z" fill="black"/>
<path d="M110.165 142.422H113.454C114.352 142.422 115.031 142.504 115.52 142.64C116.01 142.776 116.363 142.993 116.608 143.238C116.853 143.51 117.016 143.836 117.097 144.189C117.179 144.57 117.233 145.141 117.233 145.929V147.016C117.233 147.832 117.152 148.403 116.988 148.784C116.825 149.164 116.526 149.436 116.064 149.626C115.629 149.817 115.031 149.925 114.324 149.925H113.454V155.009H110.192V142.422H110.165ZM113.427 144.597V147.805C113.509 147.805 113.59 147.805 113.672 147.805C113.971 147.805 114.188 147.723 114.297 147.587C114.406 147.424 114.46 147.125 114.46 146.663V145.63C114.46 145.195 114.406 144.923 114.27 144.787C114.134 144.651 113.862 144.597 113.427 144.597Z" fill="black"/>
<path d="M130.663 142.422V152.48H132.647V155.008H127.4V142.422H130.663Z" fill="black"/>
<path d="M148.741 142.422L150.616 155.008H147.273L147.109 152.752H145.94L145.75 155.008H142.352L144.01 142.422H148.741ZM147.001 150.523C146.838 149.109 146.674 147.342 146.511 145.222C146.185 147.641 145.968 149.408 145.886 150.523H147.001Z" fill="black"/>
<path d="M166.438 142.422L164.046 150.468V155.035H161.001V150.468L158.69 142.422H161.708C162.17 144.868 162.442 146.527 162.496 147.396C162.687 146.064 162.986 144.406 163.421 142.422H166.438Z" fill="black"/>
<path d="M176.877 152.453V155.008H174.512V152.453H176.877Z" fill="black"/>
<path d="M199.087 142.422H202.377C203.274 142.422 203.954 142.503 204.443 142.639C204.932 142.775 205.286 142.992 205.53 143.237C205.775 143.509 205.938 143.835 206.02 144.189C206.101 144.569 206.156 145.14 206.156 145.928V147.016C206.156 147.831 206.074 148.402 205.911 148.783C205.748 149.163 205.449 149.435 204.987 149.626C204.524 149.816 203.954 149.925 203.247 149.925H202.377V155.008H199.115V142.422H199.087ZM202.377 144.596V147.804C202.458 147.804 202.54 147.804 202.621 147.804C202.92 147.804 203.138 147.723 203.247 147.587C203.355 147.424 203.41 147.125 203.41 146.662V145.629C203.41 145.194 203.355 144.923 203.22 144.787C203.084 144.651 202.812 144.596 202.377 144.596Z" fill="black"/>
<path d="M221.597 142.422L223.472 155.008H220.129L219.966 152.752H218.797L218.606 155.008H215.235L216.894 142.422H221.597ZM219.857 150.523C219.694 149.109 219.531 147.342 219.367 145.222C219.041 147.641 218.824 149.408 218.742 150.523H219.857Z" fill="black"/>
<path d="M240.707 142.422V150.849C240.707 151.8 240.68 152.48 240.626 152.861C240.572 153.241 240.381 153.649 240.082 154.057C239.783 154.465 239.375 154.764 238.886 154.981C238.397 155.199 237.799 155.307 237.119 155.307C236.358 155.307 235.705 155.171 235.135 154.927C234.564 154.682 234.129 154.356 233.857 153.948C233.585 153.54 233.395 153.133 233.34 152.698C233.286 152.263 233.259 151.311 233.259 149.897V142.449H236.521V151.882C236.521 152.426 236.548 152.779 236.603 152.942C236.657 153.105 236.793 153.16 236.956 153.16C237.173 153.16 237.309 153.078 237.364 152.915C237.418 152.752 237.445 152.344 237.445 151.719V142.449H240.707V142.422Z" fill="black"/>
<path d="M258.161 146.255H255.116V145.303C255.116 144.868 255.089 144.596 255.007 144.46C254.926 144.352 254.79 144.27 254.627 144.27C254.436 144.27 254.273 144.352 254.192 144.515C254.083 144.678 254.028 144.923 254.028 145.249C254.028 145.657 254.083 145.983 254.192 146.2C254.3 146.418 254.599 146.662 255.116 146.962C256.584 147.831 257.481 148.538 257.862 149.082C258.242 149.626 258.432 150.523 258.432 151.773C258.432 152.67 258.324 153.323 258.106 153.758C257.889 154.193 257.481 154.546 256.883 154.818C256.285 155.09 255.578 155.253 254.79 155.253C253.92 155.253 253.159 155.09 252.533 154.764C251.908 154.437 251.5 154.002 251.31 153.486C251.12 152.969 251.011 152.235 251.011 151.311V150.496H254.083V152.018C254.083 152.48 254.137 152.806 254.219 152.915C254.3 153.024 254.463 153.105 254.681 153.105C254.898 153.105 255.061 153.024 255.17 152.861C255.279 152.698 255.333 152.426 255.333 152.099C255.333 151.365 255.225 150.876 255.034 150.659C254.817 150.441 254.327 150.061 253.512 149.517C252.696 148.973 252.153 148.593 251.881 148.348C251.609 148.103 251.392 147.777 251.228 147.342C251.065 146.907 250.957 146.363 250.957 145.684C250.957 144.732 251.092 144.026 251.337 143.563C251.582 143.101 251.99 142.775 252.533 142.503C253.077 142.258 253.757 142.123 254.518 142.123C255.361 142.123 256.095 142.258 256.693 142.53C257.291 142.802 257.698 143.156 257.889 143.563C258.079 143.971 258.188 144.678 258.188 145.684V146.255H258.161Z" fill="black"/>
<path d="M268.681 142.422H274.145V144.95H271.971V147.342H274.009V149.734H271.971V152.507H274.363V155.035H268.681V142.422Z" fill="black"/>
<path d="M286.541 152.453V155.008H284.176V152.453H286.541Z" fill="black"/>
<path d="M308.779 142.422H311.09C312.639 142.422 313.672 142.476 314.216 142.612C314.76 142.721 315.222 143.047 315.548 143.536C315.902 144.026 316.065 144.814 316.065 145.874C316.065 146.853 315.956 147.505 315.711 147.859C315.467 148.185 314.977 148.402 314.271 148.457C314.923 148.62 315.358 148.837 315.575 149.109C315.793 149.381 315.929 149.626 315.983 149.843C316.038 150.061 316.065 150.686 316.065 151.719V155.035H313.02V150.849C313.02 150.169 312.966 149.762 312.857 149.598C312.748 149.435 312.476 149.354 312.014 149.354V155.035H308.752V142.422H308.779ZM312.041 144.596V147.396C312.422 147.396 312.667 147.342 312.803 147.233C312.938 147.125 313.02 146.798 313.02 146.255V145.575C313.02 145.167 312.938 144.923 312.803 144.787C312.694 144.651 312.422 144.596 312.041 144.596Z" fill="black"/>
<path d="M326.585 142.422H332.05V144.95H329.875V147.342H331.914V149.734H329.875V152.507H332.267V155.035H326.585V142.422Z" fill="black"/>
<path d="M349.366 146.255H346.322V145.303C346.322 144.868 346.295 144.596 346.213 144.46C346.131 144.352 345.996 144.27 345.832 144.27C345.642 144.27 345.479 144.352 345.397 144.515C345.289 144.678 345.234 144.923 345.234 145.249C345.234 145.657 345.289 145.983 345.397 146.2C345.506 146.418 345.805 146.662 346.322 146.962C347.79 147.831 348.687 148.538 349.067 149.082C349.448 149.626 349.638 150.523 349.638 151.773C349.638 152.67 349.53 153.323 349.312 153.758C349.095 154.193 348.687 154.546 348.089 154.818C347.491 155.09 346.784 155.253 345.996 155.253C345.126 155.253 344.364 155.09 343.739 154.764C343.114 154.437 342.706 154.002 342.516 153.486C342.326 152.969 342.217 152.235 342.217 151.311V150.496H345.262V152.018C345.262 152.48 345.316 152.806 345.397 152.915C345.479 153.024 345.642 153.105 345.86 153.105C346.077 153.105 346.24 153.024 346.349 152.861C346.458 152.698 346.512 152.426 346.512 152.099C346.512 151.365 346.403 150.876 346.213 150.659C345.996 150.441 345.506 150.061 344.691 149.517C343.875 148.973 343.331 148.593 343.06 148.348C342.788 148.103 342.57 147.777 342.407 147.342C342.244 146.907 342.135 146.363 342.135 145.684C342.135 144.732 342.271 144.026 342.516 143.563C342.761 143.128 343.168 142.775 343.712 142.503C344.256 142.258 344.935 142.123 345.696 142.123C346.539 142.123 347.273 142.258 347.871 142.53C348.469 142.802 348.877 143.156 349.067 143.563C349.258 143.971 349.366 144.678 349.366 145.684V146.255Z" fill="black"/>
<path d="M359.914 142.422H365.378V144.95H363.203V147.342H365.242V149.734H363.203V152.507H365.596V155.035H359.914V142.422Z" fill="black"/>
<path d="M382.152 142.422V144.95H380.194V155.008H376.932V144.95H375.002V142.422H382.152Z" fill="black"/>
<path d="M392.808 152.453V155.008H390.443V152.453H392.808Z" fill="black"/>
</svg>
